<?xml version="1.0" standalone="no"?><!DOCTYPE svg PUBLIC "-//W3C//DTD SVG 1.1//EN" "http://www.w3.org/Graphics/SVG/1.1/DTD/svg11.dtd"><svg t="1498663249136" class="icon" style="" viewBox="0 0 1024 1024" version="1.1" xmlns="http://www.w3.org/2000/svg" p-id="1586" xmlns:xlink="http://www.w3.org/1999/xlink" width="48" height="48"><defs><style type="text/css"></style></defs><path d="M122.52302 1024h-41.597114a147.189789 147.189789 0 0 1-2.943796-8.447414c-9.215361-28.414029-25.342242-63.547591-29.565949-91.897625-6.271565-41.981088 33.277691-44.348923 58.619933-62.523662 39.037292-28.158047 69.755161-43.708968 112.120222-69.115205 12.54313-7.551476 50.364506-26.558158 54.652209-35.325549 8.575405-17.406792-14.718979-41.917092-20.926549-55.548147a168.308324 168.308324 0 0 1-15.99889-61.11576 119.671698 119.671698 0 0 1-78.714539-50.556492c-26.878135-39.485261-45.436848-112.504195-22.398446-167.988346 1.919867-4.351698 10.879245-12.991099 12.159156-19.710633 2.559822-13.183085-4.479689-30.717869-5.119644-44.796892-2.559822-72.186992 12.159156-134.390677 60.795782-156.149167C223.380023 122.302555 293.775139 96.192367 360.330522 57.155075c24.766282-14.590988 52.220377-23.93434 80.634406-34.365616 101.112985-37.437403 257.134161-30.397891 341.096336 33.405682 35.645527 27.006126 92.793562 84.090166 113.272142 125.431299 53.884262 108.984439 50.044528 291.179799 12.287148 423.842596-5.119645 17.918757-12.415139 44.028945-22.718424 65.403462-7.167503 14.910966-29.437958 44.796892-26.686149 58.043973 2.751809 13.439068 50.748479 49.916537 61.051765 59.515872 18.558712 17.918757 53.756271 41.597114 56.50808 63.99556 3.071787 23.678357-10.559267 56.956049-17.470788 79.99445-9.279356 30.717869-18.558712 61.435738-27.96606 90.873696H122.459024z m473.759133-151.157513a332.136958 332.136958 0 0 0-88.057891-32.189767c-37.117425-7.039512-33.277691 50.684484-31.99778 85.114095 1.279911 27.326104 15.358934 56.188102 21.75849 74.362841 3.199778 8.447414 3.839734 17.470788 10.879246 19.198668 12.799112 2.8798 55.036182-13.951032 67.195338-20.478579 25.598224-13.951032 45.436848-35.965505 67.195338-50.74848 0.639956-7.167503 0.639956-14.399001 1.279911-21.566503-12.799112-6.399556-27.518091-11.071232-46.716759-11.903175 13.439068-6.399556 31.99778-6.399556 44.156937-14.079023l0.639956-8.319423c-21.118535-1.279911-29.437958-10.879245-43.516981-18.558712z m318.057935 125.303307c8.319423-26.366171 15.358934-52.092386 19.838623-74.746815 2.559822-12.287148 9.215361-39.165283 7.679468-50.108524-2.559822-19.646637-29.245971-34.173629-42.877026-46.332785-24.958269-22.398446-40.573185-41.597114-66.555383-62.715649-10.623263 15.99889-33.277691 26.23818-41.917092 39.037291 61.69172-29.437958 72.826948 111.992231 48.636626 157.429079 3.839734 14.079023 16.638846 19.198668 21.886482 31.357824l-3.711743 7.039512h55.036182c0.639956 0 1.407902 0 1.919867 0.639956z m-283.052364-0.447969c-2.047858-3.199778-4.223707-5.7596-6.399556-8.959379l-12.799112 8.319423h19.198668z m118.263796 0c0.383973-8.959378 0.767947-17.278801 1.279911-25.598224-22.590433 1.279911-35.197558-20.478579-51.004461-22.398447-13.823041-1.919867-25.598224 15.358934-43.516982 8.319423-4.095716 4.479689-7.871454 9.599334-12.159156 13.439068 6.591543 7.679467 12.54313 15.99889 18.046748 24.958269h34.813585c0.639956-7.039512 5.7596-12.159156 12.799112-12.159157 7.039512 0 12.159156 5.119645 12.159156 11.519201h28.158047z m90.23374 0c-13.439068-20.478579-40.445194-38.397336-71.675028-23.678358l-1.279911 23.038402h72.954939z m-363.046814 0l-4.479689-14.718979c-9.599334-30.717869-15.358934-53.756271-17.278801-71.675028-39.037292-18.558712-79.99445-37.117425-113.272142-60.795782-6.399556-4.479689-47.356715-57.596004-52.476359-55.676137-74.23485 28.798002-143.350055 79.354495-205.425749 127.351165 10.879245 23.678357 20.478579 48.636626 29.437958 74.23485h362.854827z m352.615538-90.23374c-1.279911-21.758491-7.039512-66.555383-20.47858-74.23485-28.158047-16.638846-78.714539 33.277691-99.833074 40.317203 1.919867 6.399556 5.7596 11.519201 6.399556 20.478579 12.159156-3.199778 27.518091-1.279911 38.397336 3.839734-12.799112 1.279911-26.878135 1.279911-35.197558 7.039511-3.199778 8.319423 0.639956 20.478579-1.279911 32.637736 29.437958 8.319423 63.99556 12.799112 101.752941 14.079023 7.039512-9.599334 9.599334-27.518091 8.959378-46.076803z m-174.067924-15.358935c-1.919867 15.99889 1.919867 21.758491 5.119644 40.317203 53.756271 16.638846 44.156937-74.23485-5.7596-40.957158zM373.76959 832.013319c-19.198668 19.45465 54.268235 46.076803 77.434628 47.548701 0-12.415139 7.039512-24.062331 5.7596-32.957713-27.710078-4.927658-64.123551-1.72788-83.002242-14.718979z m237.423528 9.08737c0 1.919867-2.559822 1.279911-2.8798 2.751809 24.766282 19.326659 43.197003 23.35838 76.922664 21.75849 15.102952-11.135227 28.606015-23.998335 44.476914-34.365616-36.477469 3.199778-82.426282 25.854206-118.391786 9.791321z m145.909878-756.299532C688.627746 46.147838 571.515871 16.965863 497.920977 53.635319c-58.875915 29.565949-139.510321 78.522552-166.388457 140.470255 25.598224 59.835849-7.039512 114.552053-9.599334 175.347835-0.767947 32.317758 15.358934 60.5398 16.638846 95.673363-8.575405 14.399001-35.197558 16.190877-53.756271 15.230943-6.207569-31.101842-17.086815-66.107414-49.276582-69.627169-45.436848-4.927658-78.714539 32.637736-80.634406 71.803018-2.559822 46.076803 35.517536 122.23152 88.953829 117.111876 20.862553-1.919867 25.982197-23.038402 48.636626-23.038402 12.159156 24.318313-19.006681 31.99778-22.398446 49.276581-0.639956 4.479689 2.559822 21.758491 4.479689 30.077914 9.983307 40.317203 31.741798 92.153607 53.116315 122.871475 27.070122 38.397336 80.378424 44.796892 137.782442 48.636626 10.23929-22.398446 47.99667-20.478579 72.698956-14.718979-29.437958-11.519201-56.956049-40.317203-79.99445-65.275471-26.23818-28.798002-52.476359-60.155827-53.756271-97.273252 49.276581 68.47525 89.593784 127.991121 179.187569 158.069034 67.835294 22.398446 147.189789-10.879245 199.026193-47.356714 21.758491-15.358934 34.557603-39.677247 49.916537-61.435738 57.596004-82.554273 84.47414-200.946059 78.714539-315.498113-2.559822-47.356715-2.559822-94.713429-18.558713-126.071253-16.638846-33.277691-72.314983-62.715649-105.592674-33.277692-6.399556-32.637736 26.878135-52.476359 65.915427-40.957158-28.158047-36.477469-56.956049-79.354495-96.633296-101.752941zM579.451321 635.546949c26.23818 65.915427 116.279933 58.23596 192.242663 56.50808-3.583751 8.319423-10.879245 18.558712-19.838624 21.950477-24.318313 9.919312-91.513651 17.406792-125.303307-0.511965-21.566504-11.519201-35.197558-37.245416-47.036737-52.348368-5.7596-7.295494-33.917647-25.918202-0.447969-25.982197z m7.039511-37.117425c38.077358 19.838624 107.512541 22.078468 159.220954 20.478579 2.8798 11.39121 2.815805 25.342242 2.943796 39.037292-66.235405 3.391765-144.501975-12.991099-161.908768-59.515871z m284.780244-24.958269c-20.158601 38.397336-48.828613 80.954384-108.280488 82.234295-1.023929-12.159156-1.919867-31.357825 0-38.589322 45.436848-4.351698 73.594894-27.518091 108.472474-43.324995z m-27.646082-28.478024c-43.516981 28.158047-91.897625 58.683929-163.188679 51.644417-14.974961-13.247081-20.734562-42.685039-5.951587-62.203684 7.679467 13.311077 2.559822 37.757381 24.318313 41.341132 40.317203 7.039512 87.033962-24.702286 116.471919-35.837514 17.918757-30.397891-1.919867-41.597114-17.918757-61.11576-33.277691-39.677247-78.074584-89.593784-76.794672-149.749611 13.439068-9.599334 14.718979 14.718979 16.638846 19.198668 17.278801 40.957159 60.795782 92.793562 92.793562 127.99112 7.679467 8.959378 20.478579 16.638846 21.758491 22.398446 3.839734 16.638846-10.879245 36.477469-8.959379 47.356715z m-573.400221-28.798002c-13.439068-7.871454-16.766837-42.23707-32.765727-43.133008-22.846415-1.279911-18.686704 44.796892-18.558712 71.675028-15.806903-14.079023-18.558712-58.23596-7.039512-80.634406-13.11909-6.399556-19.006681 7.039512-26.366171 12.159156 9.407347-67.835294 99.833074-31.357825 84.858113 40.957159z m-69.115205-260.46193c-29.245971 32.253762-23.038402 92.793562-19.582641 135.990565 53.116315-33.469678 123.703418 2.559822 122.999466 59.515871 25.406237-0.639956 9.471343-31.741798 4.927659-51.836404-15.038957-65.275472 25.278246-135.990566 1.791875-195.826414-45.436848 3.583751-82.810255 22.206459-110.072363 51.836404z m389.093007 47.548701c13.11909 23.93434 17.278801 48.956604 35.837513 66.939356 8.319423 8.191432 24.5103 18.110744 16.510855 40.637181-1.919867 5.119645-15.614917 16.638846-23.486371 19.198668-28.798002 8.319423-96.185327 1.279911-73.402907-34.557603 23.93434 0.639956 56.060111 15.358934 73.914872-1.919867-13.439068-22.398446-37.757381-65.275472-28.798002-90.873695z m264.557646-0.639956h2.8798c14.079023 28.54202 25.598224 58.683929 42.877026 83.834184-11.519201 26.878135-87.673918 50.812475-86.394007 2.431832 16.638846-7.231498 44.796892-1.471898 59.515871-10.687259-8.319423-23.678357-20.478579-42.877025-18.558712-75.514761zM559.100732 233.65483c-60.667791-14.079023-90.873696 25.278246-109.176425 66.235405-16.382863-3.967725-9.855316-26.23818-5.759601-37.629389 10.879245-29.885927 54.652209-69.62717 90.361731-64.251543 15.358934 2.431831 36.221487 16.446859 24.574295 35.581532zM411.398979 67.906329c-66.555383 18.814695-151.861465 67.195338-179.187569 126.903196 21.118535-3.007791 35.837514-13.69505 56.764062-14.974961 7.871454-0.639956 18.238735 3.199778 27.326105 0.639956 18.046748-4.479689 33.277691-45.436848 46.972741-60.155827 13.311077-14.718979 29.245971-21.118535 40.189212-34.557603 7.039512-3.839734 17.406792-3.199778 17.918757-14.079023-3.199778-3.199778-6.399556-5.7596-9.983308-4.479689z" p-id="1587"></path></svg>