<?xml version="1.0" standalone="no"?><!DOCTYPE svg PUBLIC "-//W3C//DTD SVG 1.1//EN" "http://www.w3.org/Graphics/SVG/1.1/DTD/svg11.dtd"><svg t="1498663223735" class="icon" style="" viewBox="0 0 1024 1024" version="1.1" xmlns="http://www.w3.org/2000/svg" p-id="1038" xmlns:xlink="http://www.w3.org/1999/xlink" width="48" height="48"><defs><style type="text/css"></style></defs><path d="M166.954 415.535c51.961 0 94.324 42.218 94.324 94.030s-42.365 94.030-94.324 94.030c-51.961-0.148-94.324-42.365-94.324-94.177 0-51.664 42.365-93.882 94.324-93.882v0zM586.913 137.136c23.323 0 46.055 2.214 68.049 6.348-0.443 3.986-0.591 7.971-0.591 12.105 0 72.182 59.045 131.079 131.376 131.079 28.49 0 54.765-9.005 76.317-24.505 50.041 57.126 82.516 129.9 89.012 209.759l-148.795 4.576c-12.4-107.462-104.363-191.307-215.369-191.307-31.294 0-61.259 6.642-88.126 18.747l-74.397-128.571c48.86-24.505 104.215-38.231 162.523-38.231v0zM790.768 774.383c51.961 0 94.177 42.218 94.177 94.030s-42.365 94.030-94.177 94.030c-51.961 0-94.324-42.218-94.324-94.030 0.148-51.812 42.512-94.030 94.324-94.030v0zM378.484 800.215c-63.474-44.285-112.482-108.053-137.723-182.449 34.69-23.618 57.569-63.327 57.569-108.349 0-46.645-24.799-87.83-61.851-111.005 23.323-78.826 72.922-146.727 138.462-193.52l78.383 126.357c-50.631 39.561-83.253 101.263-83.253 170.198 0 68.346 32.033 129.456 81.924 169.017l-73.511 129.751zM951.371 527.131c-6.052 86.944-42.956 165.475-99.787 225.11-18.156-9.447-38.823-14.91-60.67-14.91-69.084 0-125.915 53.584-131.079 121.042-23.618 4.723-47.974 7.379-72.922 7.379-57.274 0-111.447-13.285-159.717-36.756l74.102-128.867c26.275 11.365 55.207 17.566 85.616 17.566 111.447 0 203.855-84.73 215.516-192.783l148.942 2.214zM785.748 61.707c51.961 0 94.324 42.218 94.324 94.030s-42.365 94.030-94.324 94.030c-51.961 0-94.324-42.218-94.324-94.030 0.148-51.812 42.512-94.030 94.324-94.030v0z" p-id="1039"></path></svg>