<?xml version="1.0" standalone="no"?><!DOCTYPE svg PUBLIC "-//W3C//DTD SVG 1.1//EN" "http://www.w3.org/Graphics/SVG/1.1/DTD/svg11.dtd"><svg t="1498663301047" class="icon" style="" viewBox="0 0 1024 1024" version="1.1" xmlns="http://www.w3.org/2000/svg" p-id="4026" xmlns:xlink="http://www.w3.org/1999/xlink" width="48" height="48"><defs><style type="text/css"></style></defs><path d="M257.149837 596.539906l0.223651-0.22365a294.292168 294.292168 0 0 1 34.090733-28.148019c8.850172-6.326115 18.243495-11.853479 28.020219-16.61404 3.514509-1.597504 7.092917-3.163058 10.735226-4.441061 8.17922-3.131108 16.805741-5.112012 25.528112-6.006615h5.878814c1.501654 0 2.971357 0 4.504961 0.287551a46.742964 46.742964 0 0 1 17.221092 5.112012c1.565554 0.926552 2.907457 1.948955 4.504961 2.843557 2.587956 1.917005 4.792512 3.802059 6.741467 6.038565 1.629454 2.172605 3.514509 4.12156 4.792512 6.294165 3.226958 5.112012 5.782964 10.543526 7.668018 15.879189 0.639002 1.597504 0.990452 3.195008 1.597504 5.080062 0.670952 2.204555 0.990452 4.441061 1.629454 6.677567 0.639002 2.843557 0.958502 5.687114 1.597504 8.562621l0.990453 10.735226c0.319501 4.473011 0.319501 9.233573 0.3195 13.962184 0 6.006615-0.319501 12.077129-0.990452 18.083744-0.958502 7.572168-1.917005 14.888736-3.195008 22.173354-0.990452 4.473011-1.629454 8.850172-2.587956 13.323183l-1.948955 7.540218 4.15351 1.278003c7.699969 2.300406 15.080437 4.792512 22.780406 7.668019 5.782964 2.172605 11.917379 4.728612 17.668393 7.572169 5.080062 2.556006 10.224025 5.080062 15.080437 7.923619a155.72468 155.72468 0 0 1 27.540967 20.256349c2.907457 2.875507 5.495413 5.719064 8.05142 8.818222 1.948955 2.587956 3.834009 5.463463 5.463463 8.30702 2.204555 4.15351 3.834009 8.30702 5.112012 12.684181 0.670952 2.524056 0.958502 5.399563 0.958503 8.24312 0 1.629454 0 3.450608-0.287551 5.367613-0.351451 2.875507-0.990452 6.038565-1.948955 8.882122-0.670952 2.843557-1.917005 5.367613-3.195007 7.891669-2.875507 5.367613-6.485866 10.543526-10.639376 15.240187-1.278003 1.629454-2.556006 2.875507-3.83401 4.153511-1.917005 1.885055-3.482559 3.482559-5.463463 5.080062-2.236505 1.917005-4.792512 4.12156-7.348518 5.719064a89.364368 89.364368 0 0 1-9.616974 6.613666c-4.15351 2.843557-8.690421 5.399563-13.195382 7.636069-5.782964 2.843557-11.214477 5.719064-16.997441 8.21117-5.814914 2.524056-11.661778 4.824462-17.604493 6.997067-5.143963 1.917005-10.287925 3.482559-15.431888 5.048112l-1.565554 0.639002c0.639002 2.587956 1.278003 5.080062 1.565554 7.636068 0.670952 3.802059 1.629454 7.572168 2.268456 11.374228 1.309953 7.636069 2.587956 15.559688 3.226958 23.195757 0.319501 6.006615 0.639002 12.013229 0.639001 17.764243a186.332855 186.332855 0 0 1-1.948955 24.984961c-0.607051 2.907457-0.926552 6.070515-1.565554 8.914072l-1.948954 6.965117c-1.278003 3.802059-2.907457 7.955569-4.504961 11.725679-1.565554 2.875507-3.195008 6.006615-5.112013 8.882121a49.426771 49.426771 0 0 1-16.070889 14.920687c-2.556006 1.246053-5.431513 2.492106-8.01947 3.163057-4.473011 1.246053-8.977972 1.885055-13.450982 2.140656a83.613354 83.613354 0 0 1-29.202372-5.080063c-4.21741-1.278003-8.05142-3.035257-11.917379-4.760561a150.165367 150.165367 0 0 1-13.770483-6.965117 138.695289 138.695289 0 0 1-15.048487-9.425273 283.461092 283.461092 0 0 1-35.272886-28.850921l-2.587957 2.172605c-5.112012 4.760562-10.255975 9.201622-15.399937 13.674634-5.431513 4.12156-10.894977 8.21117-16.677941 12.39663a277.103027 277.103027 0 0 1-15.719438 9.808674c-5.143963 2.875507-10.607426 5.431513-15.719439 7.604119a95.019532 95.019532 0 0 1-22.812355 7.316568c-6.070515 1.246053-11.853479 1.917005-17.955944 1.789204-4.792512 0-9.616973-0.639002-14.089985-2.204556a32.205679 32.205679 0 0 1-8.37092-3.482558 27.445117 27.445117 0 0 1-5.143963-3.482559 27.093666 27.093666 0 0 1-3.195007-2.843556 7.731919 7.731919 0 0 1-2.236506-2.204556 54.538783 54.538783 0 0 1-10.607426-16.166739l-0.926552-2.875507c-0.319501-1.309953-0.990452-2.556006-1.309953-3.514509-0.639002-1.565554-0.990452-3.418658-1.565554-5.048112-0.639002-2.172605-0.990452-4.08961-1.629454-6.294166-0.639002-2.907457-1.278003-5.527363-1.597504-8.40287-0.351451-3.418658-0.958502-7.252668-0.958502-10.735226-0.351451-4.760562-0.351451-9.201622-0.351451-13.962184a169.335413 169.335413 0 0 1 0.958502-17.764244c0.670952-7.636069 1.948955-14.920686 3.226958-22.492855l3.86596-18.083744-6.421966-1.917005a292.662715 292.662715 0 0 1-37.541342-14.569235 147.098159 147.098159 0 0 1-13.482933-7.316568 146.011856 146.011856 0 0 1-28.81897-20.863401c1.246053-6.709516-1.629454-9.872574-4.18546-13.067582a62.302652 62.302652 0 0 1-10.128175-17.923994c-0.319501-1.405803-0.766802-2.907457-1.118253-4.24936a37.860842 37.860842 0 0 1-0.319501-18.946396l0.926553-3.386708a57.19064 57.19064 0 0 1 9.936474-18.403245c2.492106-3.290858 5.239813-6.294165 8.17922-9.201623l5.495413-4.696661c2.396256-1.948955 4.824462-3.802059 7.316568-5.719064 3.226958-2.236505 6.549766-4.441061 9.968425-6.677567a204.8639 204.8639 0 0 1 30.288674-15.208237 304.899594 304.899594 0 0 1 32.525179-11.150577l2.524056-0.639001c-1.597504-6.645616-3.195008-13.291232-4.473011-19.936849a235.120624 235.120624 0 0 1-3.226958-21.566303c-0.639002-5.719064-0.958502-11.374228-1.309953-17.476692-0.287551-4.441061 0-9.169672 0-13.930234 0-3.514509 0.351451-6.965117 0.926552-10.479626 0.511201-5.143963 1.437754-10.192075 2.939408-15.208237 0.287551-1.597504 0.958502-3.514509 1.597503-5.016162l1.278004-3.226958c0.319501-0.958502 0.639002-1.948955 1.278003-2.811607 2.556006-5.782964 5.751014-11.470078 10.255975-16.29454 0.958502-0.862652 1.917005-1.885055 3.195008-2.811607 0.958502-0.958502 1.948955-1.565554 2.907457-2.524056 1.278003-0.926552 2.875507-1.885055 4.473011-2.875507 2.619906-1.246053 5.175913-2.492106 8.019469-3.163058 3.226958-0.926552 6.421966-1.597504 9.616974-1.885054 0.990452 0 1.948955-0.351451 2.907457-0.351451h4.792511l3.514509 0.351451c5.175913 0.607051 10.255975 1.533604 15.431888 2.843557 3.226958 0.926552 6.709516 1.885055 9.936474 3.195007 3.514509 1.246053 6.741466 2.843557 10.287925 4.409111 5.112012 2.524056 9.936474 5.080062 14.728986 7.95557 5.143963 3.195008 10.287925 6.294165 15.399938 9.840624 5.751014 4.12156 11.533978 8.562621 17.316942 13.291232 4.504961 3.865959 8.658471 7.604119 13.163432 11.374228l2.907457 2.875507 0.926552-1.821155z m128.599064 259.945835a504.491732 504.491732 0 0 1-65.59351 10.224025c-1.278003 0.319501-2.556006 0.319501-3.834009 0.639002-5.782964 8.562621-12.17298 17.125242-18.626896 25.048861-6.741466 8.818222-13.802434 17.444743-21.150951 25.368362l-3.195008 3.450608c9.585023 9.201622 19.585398 17.732293 30.480374 25.336412 4.504961 3.226958 8.977972 6.038565 13.482933 8.914072 3.834009 2.492106 8.01947 4.409111 12.20493 6.613666 3.514509 1.597504 7.060967 3.226958 10.894977 4.473011 2.907457 0.958502 5.782964 1.917005 9.009922 2.556006a30.512324 30.512324 0 0 0 7.699968 1.246053c2.236505 0.383401 4.473011 0.383401 6.390016 0.383401a24.793261 24.793261 0 0 0 9.648924-1.948955l2.556006-1.278003a13.674633 13.674633 0 0 0 4.792512-4.15351c1.948955-2.204555 3.578409-4.728612 5.175912-7.316568 0.639002-0.607051 0.958502-1.597504 1.597504-2.492106l1.597504-3.802059c0.639002-1.629454 1.278003-3.226958 1.565554-5.080063 0.670952-2.236505 1.309953-4.12156 1.661404-6.326115 0.575101-2.843557 0.926552-5.719064 1.565554-8.594571 0.639002-2.875507 0.639002-6.006615 0.990452-9.169672a157.130484 157.130484 0 0 0-0.351451-20.895352c-0.319501-6.677566-1.278003-13.642683-2.172605-20.352199-0.990452-5.335663-1.980905-11.054727-3.258908-16.42234l-1.278003-5.431514-1.853105-0.990452z m-256.495226 0.894602l-1.948955 9.201623c-2.236505 10.511576-3.834009 21.214852-4.792511 31.918128-0.639002 7.124867-0.639002 14.281685-0.639002 21.406552 0.319501 2.843557 0.319501 6.038565 0.639002 9.169672 0.319501 2.875507 0.958502 5.399563 1.309953 8.24312 0.319501 1.948955 0.958502 4.15351 1.278003 6.038565 0.670952 1.533604 0.958502 3.131108 1.597504 4.696662 0.639002 1.309953 0.990452 2.524056 1.597504 3.802059l1.629454 2.843557c0.319501 0.670952 0.639002 1.278003 1.278003 1.917004l0.958502 1.597504 0.958503 1.278004a22.492855 22.492855 0 0 0 6.741466 6.358065l1.917005 0.990452c1.629454 0.607051 2.907457 1.246053 4.504961 1.533604 2.268456 0.351451 4.15351 0.670952 6.421965 0.670952 2.236505 0 4.473011 0 6.421966-0.319501 2.587956-0.351451 5.112012-0.990452 7.699969-1.278003 3.226958-0.607051 6.070515-1.597504 9.009922-2.524056 8.24312-2.971357 16.19869-6.709516 23.770858-11.150577 4.760562-2.811607 9.585023-6.006615 14.409485-9.169673 4.824462-3.482559 9.616973-6.965117 14.089984-10.767176 2.907457-2.236505 5.463463-4.441061 8.370921-6.997067 2.236505-2.204555 4.792512-4.12156 7.060967-6.358066l0.958502-0.894602-5.495413-6.006615c-7.348518-8.30702-14.409485-16.837691-21.470452-25.368362a546.793635 546.793635 0 0 1-16.997442-22.524805h-1.980905a840.926053 840.926053 0 0 1-29.521872-3.163057c-8.977972-1.278003-17.987894-2.875507-26.933916-4.473011l-10.607425-2.204556-2.236506 1.533604z m158.823838 11.502028c-19.233947 0.766802-38.467894 0.862652-57.733791 0.223651l-3.226958-0.09585 6.741467 8.30702c6.421966 7.795819 12.843931 15.399938 19.585397 22.812356 1.597504 1.853105 3.195008 3.642309 5.112013 5.399563l2.556006-2.875507c6.741466-7.508268 13.195382-15.304087 19.585398-23.291607 2.556006-3.163058 5.431513-6.613666 8.019469-10.415726l-0.639001-0.0639z m16.070889-182.658596a594.910452 594.910452 0 0 0-45.27326-1.725304h-2.236506c-4.792512 0-9.297473 0-14.121934 0.191701-10.607426 0-21.182902 0.639002-31.758378 1.246053a595.038253 595.038253 0 0 0-35.943838 58.979844c-3.546459 6.613666-7.060967 13.642683-10.607426 20.63975 3.865959 7.540218 7.731919 15.208237 11.885429 22.460905 6.102465 11.150577 12.524431 21.885803 18.946397 32.65298 5.463463 8.27507 10.926927 16.805741 16.35844 24.69741l19.265897 0.926552c9.297473 0.351451 18.307395 0.351451 27.604867 0.351451 15.719438 0 31.438877-0.639002 46.870765-1.565554 5.431513-7.923619 10.575476-16.166739 15.719438-24.122309 11.214477-18.371295 21.821903-37.06209 31.087426-56.423837-3.195008-6.645616-6.390016-13.035632-9.936474-19.329798a467.365741 467.365741 0 0 0-14.121935-24.72936 548.67869 548.67869 0 0 0-21.502402-33.930983l-1.278004-1.885054-0.958502 1.565553z m-152.146271 105.563058c-2.236505 5.719064-4.792512 11.565928-7.029017 17.444743-3.514509 9.009922-6.741466 18.083744-9.648924 27.253416 5.495413 1.278003 11.246427 2.268456 16.677941 3.258908 8.01947 1.405803 16.39039 2.524056 24.409859 3.514509 2.236505 0.351451 4.504961 0.543151 6.709517 0.734852-3.482559-5.463463-7.060967-11.022777-10.255975-16.614041a719.995008 719.995008 0 0 1-20.19245-35.624337l-0.670951 0.03195z m210.870514-0.862652c-3.195008 6.262215-6.709516 12.39663-9.968424 18.594945-3.802059 6.805367-7.668019 13.642683-11.821529 20.4161-2.619906 4.760562-5.463463 9.201622-8.37092 13.930234l4.792512-0.639001c8.01947-0.958502 16.038939-2.204555 23.802808-3.482559 6.390016-0.894602 13.131482-2.204555 19.553447-3.770109a279.115881 279.115881 0 0 0-9.297472-25.655913c-2.268456-6.390016-5.143963-12.716131-7.699969-18.754695l-0.990453-0.639002z m-248.379906-88.757317l-7.060967 2.108705a256.335476 256.335476 0 0 0-36.582839 14.185835 186.652356 186.652356 0 0 0-14.089985 7.636069 99.332793 99.332793 0 0 0-11.565928 7.827769 90.03532 90.03532 0 0 0-14.121935 13.067582c-1.278003 1.757254-2.556006 3.482559-3.834009 5.399563-0.958502 1.597504-1.948955 3.195008-2.556006 4.856412a18.051794 18.051794 0 0 0-1.597504 7.316568v1.885054c0 2.779657 0.958502 5.591264 1.917005 8.17922l0.670951 1.373854 0.958503 1.661404 1.309953 2.204555 1.948955 2.683807 2.556006 3.067207c0.958502 1.246053 2.268456 2.428206 3.195008 3.610359 1.629454 1.437754 2.907457 2.843557 4.504961 4.24936 1.948955 1.597504 3.514509 3.099158 5.463463 4.568861 2.587956 1.917005 5.143963 3.802059 7.699969 5.591264 3.195008 2.204555 6.421966 4.441061 9.968424 6.294165 4.473011 2.524056 8.977972 4.760562 13.482933 7.029018 5.431513 2.492106 11.246427 5.048112 16.677941 7.252667 5.143963 1.980905 9.968424 3.834009 14.760936 5.112013l7.380468 2.204555 6.709516-19.968799c4.15351-11.118627 8.37092-21.917754 13.163432-32.652979l5.782964-12.04518-5.399563-12.077129a544.90858 544.90858 0 0 1-13.514883-33.291982c-2.236505-6.006615-4.473011-12.36468-6.390015-18.658845l-1.437754-0.670952z m285.921248 0.351451c-1.661404 5.463463-3.482559 10.863027-5.463463 16.26259-3.834009 11.342278-8.33897 22.556755-13.482933 33.643432l-6.070515 13.450983 7.731919 16.45429c4.760562 10.255975 9.009922 20.767551 12.780031 31.311076 2.268456 5.431513 4.21741 10.990827 5.814914 16.486241l3.86596-1.118253c4.473011-1.278003 8.690421-2.556006 12.843931-4.12156 8.658471-2.875507 16.997441-6.358066 25.048861-10.479626a98.086739 98.086739 0 0 0 14.441436-7.923619c4.18546-2.204555 7.98752-5.048112 11.853478-7.923619 2.907457-1.917005 5.463463-4.15351 8.05142-6.645617 2.236505-1.948955 4.441061-4.473011 6.421966-6.645616 1.597504-1.629454 2.907457-3.514509 4.15351-5.463463 0.990452-1.565554 1.917005-3.163058 2.587956-4.696662a15.016537 15.016537 0 0 0 1.917005-7.604118c0.351451-0.639002 0.351451-1.246053 0-2.236506a14.281685 14.281685 0 0 0-0.990452-5.016162 21.278752 21.278752 0 0 0-2.875507-6.006615l-0.958503-1.885054-1.597504-2.268456c-0.639002-0.926552-1.597504-1.885055-2.236505-2.843557-0.958502-0.926552-1.980905-2.204555-3.226958-3.482558-1.309953-1.214103-2.875507-2.524056-4.15351-3.802059-1.917005-1.565554-3.865959-3.163058-6.070515-4.760562-2.268456-1.917005-4.856412-3.450608-7.092917-5.016162a75.657785 75.657785 0 0 0-9.904525-6.006615 146.906459 146.906459 0 0 0-13.163432-6.390016c-5.143963-2.524056-10.639376-4.441061-16.070889-6.613666a259.242933 259.242933 0 0 0-22.780406-7.316568l-1.373853-1.341903z m-143.4878 18.019844c25.368362 0 45.912262 20.32025 45.912262 45.337161 0 24.984961-20.5439 45.337161-45.912262 45.33716a45.688612 45.688612 0 0 1-45.912262-45.33716 45.688612 45.688612 0 0 1 45.912262-45.337161z m74.954883-31.374976c5.655164 8.658471 11.086677 17.540593 16.32649 26.486614 4.824462 8.30702 9.553073 16.677941 14.121934 25.176662 2.715757-6.390016 5.335663-12.875881 7.859719-19.393698 2.875507-8.01947 5.751014-16.070889 8.370921-24.250109a514.236505 514.236505 0 0 0-47.190265-8.05142l0.511201 0.031951z m-149.877816-0.159751c-12.524431 1.597504-24.984961 3.578409-37.349641 6.038565-2.907457 0.575101-6.070515 1.150203-8.946022 1.917005 2.875507 8.658471 5.751014 17.380842 8.946022 25.879563 2.236505 6.038565 4.792512 12.045179 7.348518 17.987894 5.814914-10.767176 11.885429-21.917754 18.307394-32.333479 4.15351-6.390016 8.01947-13.003682 12.17298-19.329797l-0.479251-0.159751z m202.595445-12.716131l0.990452-4.21741c1.309953-5.559314 2.236505-11.022777 3.226958-16.645991 1.278003-7.220718 1.917005-14.569236 2.556006-21.853853 0.319501-7.188768 0.670952-14.409485 0.319501-21.534353-0.319501-3.226958-0.319501-6.517816-0.958502-9.680873-0.287551-2.907457-0.926552-5.655164-1.278004-8.370921-0.639002-2.140655-0.958502-4.313261-1.597504-6.390015-0.639002-1.565554-0.958502-3.099158-1.597503-4.696662l-0.958503-3.674259-1.182153-2.460156c-0.447301-0.734852-0.798752-1.533604-1.341903-2.204555a9.712824 9.712824 0 0 0-1.086303-1.853105c-0.351451-0.383401-0.607051-0.926552-0.862652-1.309953a21.310702 21.310702 0 0 0-9.297472-7.636069 25.144711 25.144711 0 0 0-7.380468-1.565553c-0.670952 0-1.309953 0-1.948955-0.063901h-0.639002c-0.639002 0-1.278003 0-2.236505 0.127801-1.948955 0-3.865959 0.351451-5.814914 0.639001-2.236505 0.319501-4.792512 0.926552-7.060968 1.597504l-8.658471 2.843557c-3.195008 1.278003-6.390016 2.843557-9.968424 4.409111-4.15351 2.012855-8.01947 4.536911-12.17298 6.741466-4.15351 2.492106-8.658471 5.367613-12.843931 8.562621a263.268643 263.268643 0 0 0-29.234322 24.37791l4.185461 4.473011c8.33897 8.882122 16.038939 18.083744 23.419407 27.604867 5.463463 6.645616 10.575476 13.962184 15.719438 20.895351l13.163432 1.278003c9.616973 0.862652 19.265897 2.492106 28.850921 4.12156 9.009922 1.246053 17.987894 3.195008 26.646365 5.080063l-0.958502 1.405803z m-142.752949-64.283557a304.100842 304.100842 0 0 0-29.266271-24.090359 307.679251 307.679251 0 0 0-14.121935-9.073822c-4.15351-2.492106-8.658471-4.792512-12.811981-6.997067a271.959064 271.959064 0 0 0-9.648924-4.08961 91.057722 91.057722 0 0 0-15.687488-4.34521c-2.268456-0.287551-4.21741-0.543151-6.134415-0.670952l-2.236505-0.0639h-0.287551c-0.670952 0-1.278003 0-1.948955 0.0639a27.604867 27.604867 0 0 0-12.17298 3.386708 19.265897 19.265897 0 0 0-4.792511 4.313261c-1.917005 2.204555-3.546459 4.664711-4.792512 7.252667l-1.309953 2.683807c-0.670952 0.926552-0.958502 2.204555-1.309953 3.450608-0.639002 1.597504-1.278003 2.875507-1.597504 4.473011-0.319501 1.885055-0.958502 4.08961-1.278003 6.006615-0.319501 2.524056-0.990452 5.080062-1.309954 7.955569a82.750702 82.750702 0 0 0-0.607051 9.137723c-0.351451 6.997067 0 13.962184 0.287551 20.959251 0.639002 10.799126 2.587956 21.534353 4.824461 32.301529 0.639002 3.482559 1.597504 7.029017 2.268456 10.479625 3.195008-0.958502 6.709516-1.565554 9.936474-2.172605 7.699969-1.629454 15.719438-3.195008 23.770858-4.12156 8.626521-1.597504 17.604493-2.587956 26.294914-3.514509l7.98752-0.926552c5.143963-7.316568 10.607426-14.249735 16.038939-21.214852 7.092917-8.882122 14.473385-17.828144 22.141404-26.039313l5.782964-6.294166 1.980905 1.150203z m15.336037 15.495788l-5.239812 5.655164c-6.837317 7.604119-13.450983 15.399938-19.809049 23.355507l-5.463463 7.029017c9.105772-0.447301 18.179594-0.702902 27.285367-0.734852h3.706209c9.904524 0.03195 19.840998 0.255601 29.745522 0.702902l-5.112012-6.326116a431.006552 431.006552 0 0 0-21.214852-25.176661l-4.15351-4.504961h0.2556zM766.945282 549.317691l214.512824 78.852793-44.698159 262.917192-169.878565 91.185522-169.782715-91.345273-44.570358-262.725491 214.416973-78.884743m0-36.518939L511.376608 604.080125l52.621779 310.363058L766.977232 1024l202.851045-109.556817L1022.577856 604.080125l-255.632574-91.281373z m100.482995 365.157441h45.624712l-146.043807-319.50078-146.075756 319.50078h45.656661l30.352574-63.900156h140.164992l30.320624 63.900156z m-148.887363-109.556817l48.404368-101.952699 48.468268 101.952699h-96.872636zM511.408558 511.456849L219.288995 0.351451h225.088299l14.345586 24.377909 52.685678 92.463526L564.094237 24.37791 575.212864 0h228.283307l-292.087613 511.456849z m91.377223-479.570671l-91.377223 144.446302L419.999385 31.886178h-51.247925l142.657098 255.920125 142.625148-255.920125h-51.247925z m83.453604 0l-174.830827 307.902902L336.481881 31.886178H279.131491l232.277067 413.62571L743.589775 31.886178h-57.35039z" p-id="4027"></path></svg>